name ./resultDataOpenSim/trcMotMarkerGrf/sub09/grf-02-03.mot
datacolumns 19
datarows 15
range 0.94400000 1.00000000
endheader

                time	     ground_force_vx	     ground_force_vy	     ground_force_vz	     ground_force_px	     ground_force_py	     ground_force_pz	   l_ground_force_vx	   l_ground_force_vy	   l_ground_force_vz	   l_ground_force_px	   l_ground_force_py	   l_ground_force_pz	     ground_torque_x	     ground_torque_y	     ground_torque_z	   l_ground_torque_x	   l_ground_torque_y	   l_ground_torque_z	
          0.94400000	          0.00000000	          0.00000000	          0.00000000	          0.00000000	          0.00000000	          0.00000000	         -8.52770324	        435.64307009	         14.62213141	          0.16066126	         -0.02500000	         -0.00099376	          0.00000000	          0.00000000	          0.00000000	          0.00000000	         -1.66233950	          0.00000000	
          0.94800000	          0.00000000	          0.00000000	          0.00000000	          0.00000000	          0.00000000	          0.00000000	         -6.78662915	        443.29326757	         14.30887675	          0.16072903	         -0.02500000	         -0.00114709	          0.00000000	          0.00000000	          0.00000000	          0.00000000	         -1.90220551	          0.00000000	
          0.95200000	          0.00000000	          0.00000000	          0.00000000	          0.00000000	          0.00000000	          0.00000000	         -4.86140580	        451.18488449	         13.74828549	          0.16077773	         -0.02500000	         -0.00122918	          0.00000000	          0.00000000	          0.00000000	          0.00000000	         -2.17018926	          0.00000000	
          0.95600000	          0.00000000	          0.00000000	          0.00000000	          0.00000000	          0.00000000	          0.00000000	         -2.71630450	        459.34956594	         13.01309940	          0.16086698	         -0.02500000	         -0.00121714	          0.00000000	          0.00000000	          0.00000000	          0.00000000	         -2.46008660	          0.00000000	
          0.96000000	          0.00000000	          0.00000000	          0.00000000	          0.00000000	          0.00000000	          0.00000000	         -0.31211389	        467.82630619	         12.20061398	          0.16102333	         -0.02500000	         -0.00110279	          0.00000000	          0.00000000	          0.00000000	          0.00000000	         -2.76529039	          0.00000000	
          0.96400000	          0.00000000	          0.00000000	          0.00000000	          0.00000000	          0.00000000	          0.00000000	          2.40490584	        476.65528602	         11.40807989	          0.16125580	         -0.02500000	         -0.00088889	          0.00000000	          0.00000000	          0.00000000	          0.00000000	         -3.07951254	          0.00000000	
          0.96800000	          0.00000000	          0.00000000	          0.00000000	          0.00000000	          0.00000000	          0.00000000	          5.49813775	        485.84164027	         10.71309990	          0.16154919	         -0.02500000	         -0.00060210	          0.00000000	          0.00000000	          0.00000000	          0.00000000	         -3.39721898	          0.00000000	
          0.97200000	          0.00000000	          0.00000000	          0.00000000	          0.00000000	          0.00000000	          0.00000000	          9.01948864	        495.35111878	         10.16719759	          0.16185473	         -0.02500000	         -0.00028953	          0.00000000	          0.00000000	          0.00000000	          0.00000000	         -3.71370916	          0.00000000	
          0.97600000	          0.00000000	          0.00000000	          0.00000000	          0.00000000	          0.00000000	          0.00000000	         12.99339456	        505.14492998	          9.79970953	          0.16211067	         -0.02500000	         -0.00000035	          0.00000000	          0.00000000	          0.00000000	          0.00000000	         -4.02490295	          0.00000000	
          0.98000000	          0.00000000	          0.00000000	          0.00000000	          0.00000000	          0.00000000	          0.00000000	         17.41285531	        515.19413882	          9.62394611	          0.16227274	         -0.02500000	          0.00022344	          0.00000000	          0.00000000	          0.00000000	          0.00000000	         -4.32703418	          0.00000000	
          0.98400000	          0.00000000	          0.00000000	          0.00000000	          0.00000000	          0.00000000	          0.00000000	         22.23252904	        525.45766106	          9.63797609	          0.16233718	         -0.02500000	          0.00036621	          0.00000000	          0.00000000	          0.00000000	          0.00000000	         -4.61646297	          0.00000000	
          0.98800000	          0.00000000	          0.00000000	          0.00000000	          0.00000000	          0.00000000	          0.00000000	         27.37256336	        535.88275945	          9.82466844	          0.16235846	         -0.02500000	          0.00043860	          0.00000000	          0.00000000	          0.00000000	          0.00000000	         -4.88969504	          0.00000000	
          0.99200000	          0.00000000	          0.00000000	          0.00000000	          0.00000000	          0.00000000	          0.00000000	         32.74867204	        546.44460052	         10.16651099	          0.16241367	         -0.02500000	          0.00046496	          0.00000000	          0.00000000	          0.00000000	          0.00000000	         -5.14356799	          0.00000000	
          0.99600000	          0.00000000	          0.00000000	          0.00000000	          0.00000000	          0.00000000	          0.00000000	         38.29704095	        557.14443034	         10.66821112	          0.16255171	         -0.02500000	          0.00049080	          0.00000000	          0.00000000	          0.00000000	          0.00000000	         -5.37552482	          0.00000000	
          1.00000000	          0.00000000	          0.00000000	          0.00000000	          0.00000000	          0.00000000	          0.00000000	         43.96637525	        567.96667485	         11.35360132	          0.16278628	         -0.02500000	          0.00055936	          0.00000000	          0.00000000	          0.00000000	          0.00000000	         -5.58387460	          0.00000000	
